<?xml version="1.0" encoding="utf-8"?>
<!-- Generator: Adobe Illustrator 23.0.4, SVG Export Plug-In . SVG Version: 6.00 Build 0)  -->
<svg version="1.1" id="Ebene_1" xmlns="http://www.w3.org/2000/svg" xmlns:xlink="http://www.w3.org/1999/xlink" x="0px" y="0px"
	 viewBox="0 0 64 64" style="enable-background:new 0 0 64 64;" xml:space="preserve">
<style type="text/css">
	.st0{fill:#279989!important;}
	.st1{fill:#FFFFFF!important;}
	.st2{opacity:0.5;fill:#279989;enable-background:new    ;}
	.st3{opacity:0.4;fill:#279989;}
	.st4{opacity:0.8;fill:#279989;}
	.st5{opacity:0.6;fill:#279989;}
	.st6{opacity:0.2;fill:#279989;}
</style>
<path class="st0" d="M0,0h64v64H0V0z"/>
<path class="st1" d="M16,14h32v36H16V14z"/>
<path class="st0" d="M16,14h4v4h-4V14z"/>
<path class="st2" d="M18,14h2v36h-2V14z"/>
<path class="st3" d="M34,33.5c2.1,0,4-0.2,5.8-0.5c1.8-0.3,3.2-0.9,4.2-1.5v2.1c0,0.6-0.4,1.1-1.3,1.6c-0.9,0.5-2.1,0.9-3.6,1.1
	c-1.5,0.3-3.2,0.4-5,0.4c-1.8,0-3.5-0.1-5-0.4c-1.5-0.3-2.8-0.7-3.6-1.1c-0.9-0.5-1.3-1-1.3-1.6v-2.1c1,0.7,2.4,1.2,4.2,1.5
	C30,33.3,31.9,33.5,34,33.5z"/>
<path class="st4" d="M34,42.9c2.1,0,4-0.2,5.8-0.5c1.8-0.3,3.2-0.9,4.2-1.5v2.1c0,0.6-0.4,1.1-1.3,1.6c-0.9,0.5-2.1,0.9-3.6,1.1
	c-1.5,0.3-3.2,0.4-5,0.4c-1.8,0-3.5-0.1-5-0.4c-1.5-0.3-2.8-0.7-3.6-1.1c-0.9-0.5-1.3-1-1.3-1.6v-2.1c1,0.7,2.4,1.2,4.2,1.5
	C30,42.7,31.9,42.9,34,42.9z"/>
<path class="st5" d="M34,38.2c2.1,0,4-0.2,5.8-0.5c1.8-0.3,3.2-0.9,4.2-1.5v2.1c0,0.6-0.4,1.1-1.3,1.6c-0.9,0.5-2.1,0.9-3.6,1.1
	c-1.5,0.3-3.2,0.4-5,0.4c-1.8,0-3.5-0.1-5-0.4c-1.5-0.3-2.8-0.7-3.6-1.1c-0.9-0.5-1.3-1-1.3-1.6v-2.1c1,0.7,2.4,1.2,4.2,1.5
	C30,38,31.9,38.2,34,38.2z"/>
<path class="st6" d="M34,24.2c1.8,0,3.5,0.1,5,0.4c1.5,0.3,2.8,0.7,3.6,1.1s1.3,1,1.3,1.6v1.6c0,0.6-0.4,1.1-1.3,1.6
	c-0.9,0.5-2.1,0.9-3.6,1.1c-1.5,0.3-3.2,0.4-5,0.4c-1.8,0-3.5-0.1-5-0.4c-1.5-0.3-2.8-0.7-3.6-1.1c-0.9-0.5-1.3-1-1.3-1.6v-1.6
	c0-0.6,0.4-1.1,1.3-1.6c0.9-0.5,2.1-0.9,3.6-1.1C30.5,24.3,32.2,24.2,34,24.2z"/>
<polygon class="st4" points="32,18 32,19.7 28,19.7 34,23.4 40,19.7 36,19.7 36,18 "/>
</svg>
